<svg width="13" height="13" viewBox="0 0 13 13" fill="none" xmlns="http://www.w3.org/2000/svg">
<path fill-rule="evenodd" clip-rule="evenodd" d="M6.59127 5.213V7.787C6.59127 7.787 9.12356 7.78381 10.1549 7.78381C9.59644 9.45259 8.72842 10.3613 6.59127 10.3613C4.42894 10.3613 2.74083 8.63253 2.74083 6.5C2.74083 4.36747 4.42894 2.63873 6.59127 2.63873C7.73473 2.63873 8.47329 3.03484 9.15064 3.5872C9.69258 3.05261 9.64735 2.97647 11.027 1.69186C9.85589 0.640718 8.29969 0 6.59127 0C2.95127 0 0 2.91014 0 6.5C0 10.0896 2.951 13 6.59127 13C12.0326 13 13.3626 8.32796 12.9217 5.213H6.59127Z" fill="#FCF9F5"/>
</svg>
