<svg width="10" height="10" viewBox="0 0 10 10" fill="none" xmlns="http://www.w3.org/2000/svg">
<path d="M0 1.16161C0 0.824908 0.112616 0.54713 0.337838 0.328282C0.56306 0.109424 0.855859 0 1.21622 0C1.57014 0 1.8565 0.107737 2.07529 0.323232C2.30051 0.545454 2.41313 0.835009 2.41313 1.19192C2.41313 1.51515 2.30374 1.7845 2.08494 2C1.85972 2.22222 1.56371 2.33333 1.19691 2.33333H1.18726C0.83333 2.33333 0.546979 2.22222 0.328185 2C0.109392 1.77777 0 1.49831 0 1.16161ZM0.125483 9.99998V3.25252H2.26834V9.99998H0.125483ZM3.4556 9.99998H5.59846V6.23231C5.59846 5.99662 5.6242 5.8148 5.67568 5.68686C5.76576 5.4579 5.90251 5.26429 6.08591 5.10605C6.2693 4.9478 6.49935 4.86868 6.77606 4.86868C7.49679 4.86868 7.85714 5.37709 7.85714 6.39393V9.99998H10V6.1313C10 5.13467 9.77478 4.37878 9.32432 3.86363C8.87387 3.34848 8.27864 3.0909 7.53861 3.0909C6.70849 3.0909 6.06178 3.46464 5.59846 4.21211V4.23232H5.5888L5.59846 4.21211V3.25252H3.4556C3.46847 3.468 3.4749 4.13803 3.4749 5.26262C3.4749 6.38719 3.46847 7.96631 3.4556 9.99998Z" fill="#FCF9F5"/>
</svg>
