<svg width="22" height="22" viewBox="0 0 22 22" fill="none" xmlns="http://www.w3.org/2000/svg">
<path d="M21.889 10.4296L13.5973 9.73317L17.1063 4.89185C17.1289 4.86704 17.1415 4.83463 17.1415 4.80101C17.1415 4.76738 17.1289 4.73498 17.1063 4.71017C17.082 4.69079 17.0519 4.68025 17.0209 4.68025C16.9898 4.68025 16.9597 4.69079 16.9354 4.71017L12.1863 8.14519L11.1372 0.363404L11.1037 0.114441C11.1006 0.091449 11.09 0.0701393 11.0735 0.0538821C11.0622 0.0368054 11.0467 0.0229062 11.0285 0.01349C11.0103 0.00407378 10.9901 -0.000550285 10.9696 5.21661e-05C10.9372 -0.000119648 10.9058 0.011842 10.8816 0.0336084C10.8575 0.0553748 10.8423 0.0853881 10.8389 0.117805L9.91725 8.14856L5.33232 4.93222L5.1748 4.82119C5.15719 4.8085 5.13615 4.80146 5.11447 4.80101C5.08824 4.7964 5.06123 4.79994 5.03706 4.81117C5.01289 4.82239 4.99271 4.84075 4.97923 4.86381C4.96574 4.88686 4.95959 4.91349 4.9616 4.94015C4.96361 4.96681 4.97368 4.99221 4.99047 5.01296L8.39229 9.5044L0.120658 10.5137C0.0874741 10.5171 0.0567249 10.5327 0.0344145 10.5576C0.0121041 10.5825 -0.000165445 10.6148 1.6852e-06 10.6483C-4.24395e-05 10.6819 0.0128049 10.7143 0.0358864 10.7388C0.0589678 10.7632 0.0905174 10.7778 0.124009 10.7795L8.57328 11.5567L5.21167 16.5427L5.10442 16.7008C5.09139 16.717 5.08429 16.7372 5.08431 16.758C5.08107 16.7794 5.08304 16.8013 5.09004 16.8218C5.09704 16.8423 5.10887 16.8608 5.12453 16.8757C5.14935 16.8968 5.18082 16.9084 5.21334 16.9084C5.24587 16.9084 5.27734 16.8968 5.30216 16.8757L9.89714 12.9932L10.8389 21.8685C10.8413 21.8949 10.8515 21.92 10.8684 21.9404C10.8852 21.9608 10.9078 21.9757 10.9332 21.983C10.9586 21.9903 10.9856 21.9896 11.0107 21.9812C11.0357 21.9728 11.0576 21.9569 11.0735 21.9357C11.0907 21.9173 11.1013 21.8936 11.1037 21.8685L11.1372 21.532L11.9885 13.0639L16.7477 16.6167L16.9321 16.7546C16.9504 16.7688 16.9726 16.777 16.9957 16.7782C17.0163 16.7816 17.0374 16.78 17.0572 16.7735C17.077 16.7671 17.095 16.756 17.1097 16.7412C17.1307 16.7162 17.1422 16.6847 17.1422 16.652C17.1422 16.6194 17.1307 16.5878 17.1097 16.5628L13.4196 11.7753L21.5907 10.7324L21.8823 10.6954C21.9059 10.6937 21.9283 10.6842 21.946 10.6685C21.964 10.6573 21.9786 10.6413 21.988 10.6223C21.9975 10.6033 22.0015 10.582 21.9996 10.5608C22 10.5292 21.989 10.4986 21.9687 10.4745C21.9484 10.4504 21.9201 10.4345 21.889 10.4296ZM9.94741 8.49845C9.96687 8.51115 9.98921 8.5187 10.0124 8.52039C10.0355 8.52208 10.0587 8.51786 10.0798 8.50812C10.1009 8.49837 10.1192 8.48343 10.1329 8.46468C10.1467 8.44593 10.1555 8.42398 10.1586 8.40088L10.9696 1.3458V10.5911L6.42493 6.029L9.94741 8.49845ZM8.67047 9.75672C8.69363 9.75328 8.71556 9.74409 8.73429 9.72999C8.75301 9.71589 8.76794 9.69733 8.77772 9.67598C8.78831 9.65514 8.79384 9.63208 8.79384 9.60869C8.79384 9.5853 8.78831 9.56224 8.77772 9.54141L5.80154 5.63874L10.7384 10.5776H1.92044L8.67047 9.75672ZM10.9696 20.5227V20.5564L10.1351 12.714C10.1332 12.6899 10.1247 12.6667 10.1105 12.6471C10.0963 12.6275 10.077 12.6122 10.0547 12.603C10.0381 12.5997 10.021 12.5997 10.0044 12.603C9.97227 12.6034 9.94134 12.6153 9.91725 12.6366L6.32103 15.6646L10.9696 10.9982V20.5227ZM11.1372 2.35511L11.9516 8.41098C11.9538 8.43449 11.9623 8.45697 11.9761 8.47606C11.99 8.49515 12.0087 8.51013 12.0303 8.51944C12.0519 8.52874 12.0756 8.53201 12.099 8.52891C12.1223 8.52581 12.1443 8.51645 12.1628 8.50182L15.997 5.71948L11.1372 10.5978V2.35511ZM11.9583 12.7174C11.9393 12.7032 11.917 12.6942 11.8935 12.6913C11.87 12.6883 11.8462 12.6915 11.8243 12.7005C11.8029 12.7112 11.7845 12.7268 11.7705 12.7461C11.7565 12.7655 11.7473 12.7879 11.7438 12.8116L11.1372 18.8405V10.9948L15.4473 15.3214L11.9583 12.7174ZM13.1616 11.5533C13.1382 11.5561 13.116 11.5651 13.0972 11.5792C13.0783 11.5934 13.0635 11.6123 13.0543 11.634C13.0458 11.6581 13.0442 11.684 13.0495 11.709C13.0548 11.7339 13.0669 11.7569 13.0845 11.7753L16.2718 15.9102L11.1741 10.7963L11.1372 10.83V10.766H19.4759L13.1616 11.5533Z" fill="#1DC6A1"/>
</svg>
